#!OML:ASF X:\für Bonn\!DataBase\2005_08_11_Bastian_Final\c3d\Bastian.ASF
:FULLY-SPECIFIED
:DEGREES
417
root 17.6303 17.419 -0.573972 364.701 -74.3087 -9.67417
lowerback 28.023 0.998566 1.42262
upperback 15.7231 0.165869 -0.392178
thorax 2.21254 -0.38107 -1.30106
lowerneck -10.6614 -8.79228 -1.31665
upperneck -5.7548 -11.9064 16.824
head 1.20019 -5.98262 4.68383
rclavicle -2.38542e-015 -2.3059e-014
rhumerus -8.84167 27.368 -79.3859
rradius 27.4425
rwrist -8.39892
rhand -23.8889 3.50025
rfingers 7.12502
rthumb 2.58465 -26.4638
lclavicle -2.38542e-015 -2.3059e-014
lhumerus -5.10403 -17.2919 84.0892
lradius 31.286
lwrist 27.5325
lhand -15.9819 -8.06558
lfingers 7.12502
lthumb 10.2176 21.6663
rfemur -32.966 -5.75525 24.6878
rtibia 58.2681
rfoot -20.0153 -7.56824
rtoes 2.08196
lfemur 11.0512 2.07823 -17.2133
ltibia 16.6619
lfoot -13.3182 -10.7407
ltoes -9.66707
418
root 17.5172 17.4206 -0.552587 364.722 -74.5207 -9.78308
lowerback 27.5173 0.899538 1.4232
upperback 15.6464 0.0561922 -0.404022
thorax 2.34717 -0.427382 -1.28645
lowerneck -10.4766 -8.72917 -1.43135
upperneck -5.44801 -11.8325 16.7618
head 1.25734 -5.92761 4.68744
rclavicle -1.74931e-014 2.82274e-014
rhumerus -9.49279 27.027 -79.6358
rradius 27.446
rwrist -8.81211
rhand -23.816 3.47897
rfingers 7.12502
rthumb 2.65506 -26.4843
lclavicle -1.74931e-014 2.82274e-014
lhumerus -4.92097 -17.5702 84.0592
lradius 31.8001
lwrist 27.9435
lhand -15.9903 -8.1654
lfingers 7.12502
lthumb 10.2095 21.5669
rfemur -33.3422 -5.87011 24.6283
rtibia 57.1472
rfoot -20.1047 -7.54396
rtoes 2.60895
lfemur 12.3513 2.0825 -17.1985
ltibia 15.1543
lfoot -12.9234 -10.4845
ltoes -9.7882
419
root 17.4024 17.4201 -0.531988 364.775 -74.7221 -9.92827
lowerback 27.0263 0.794334 1.43902
upperback 15.5733 -0.0592675 -0.416704
thorax 2.48103 -0.475851 -1.28126
lowerneck -10.3197 -8.67017 -1.56287
upperneck -5.15712 -11.7637 16.7346
head 1.31828 -5.8754 4.703
rclavicle 3.61788e-014 -8.74653e-015
rhumerus -10.1369 26.6564 -79.9138
rradius 27.4032
rwrist -9.11607
rhand -23.7637 3.39915
rfingers 7.12502
rthumb 2.70555 -26.5634
lclavicle 3.61788e-014 -8.74653e-015
lhumerus -4.7151 -17.5489 84.057
lradius 32.204
lwrist 27.9986
lhand -15.904 -8.31264
lfingers 7.12502
lthumb 10.2928 21.4155
rfemur -33.6698 -5.97336 24.5738
rtibia 55.9915
rfoot -20.1885 -7.52962
rtoes 3.14244
lfemur 13.7073 2.05395 -17.1899
ltibia 13.5413
lfoot -12.5171 -10.1886
ltoes -10.3442
420
root 17.2853 17.4199 -0.512359 364.902 -74.9292 -10.0921
lowerback 26.4978 0.710878 1.44975
upperback 15.4648 -0.142922 -0.40875
thorax 2.59375 -0.507834 -1.25897
lowerneck -10.1035 -8.63265 -1.68773
upperneck -4.91662 -11.7142 16.6542
head 1.35176 -5.83891 4.70444
rclavicle -1.59028e-014 3.02153e-014
rhumerus -10.8552 26.3027 -80.196
rradius 27.363
rwrist -9.42446
rhand -23.8228 3.28391
rfingers 7.12502
rthumb 2.64845 -26.6794
lclavicle -1.59028e-014 3.02153e-014
lhumerus -4.57812 -17.6642 84.0861
lradius 32.6792
lwrist 28.1299
lhand -15.8504 -8.34974
lfingers 7.12502
lthumb 10.3444 21.3758
rfemur -34.0442 -6.03997 24.5254
rtibia 54.796
rfoot -20.228 -7.52041
rtoes 3.77466
lfemur 15.0655 2.06795 -17.1585
ltibia 11.8098
lfoot -12.0085 -9.92349
ltoes -10.5195
421
root 17.1658 17.4179 -0.494069 364.826 -75.1327 -10.0564
lowerback 25.9988 0.633338 1.40926
upperback 15.345 -0.229288 -0.418551
thorax 2.68113 -0.5438 -1.22698
lowerneck -9.83767 -8.58147 -1.77274
upperneck -4.72498 -11.6431 16.5528
head 1.35671 -5.7981 4.69856
rclavicle 9.14409e-015 -1.86858e-014
rhumerus -11.5829 25.8485 -80.5116
rradius 27.2789
rwrist -9.56647
rhand -23.7939 3.16255
rfingers 7.12502
rthumb 2.67639 -26.8004
lclavicle 9.14409e-015 -1.86858e-014
lhumerus -4.45764 -17.7295 84.1093
lradius 33.1135
lwrist 28.1586
lhand -15.7466 -8.31352
lfingers 7.12502
lthumb 10.4446 21.407
rfemur -34.3864 -6.07478 24.4048
rtibia 53.5704
rfoot -20.268 -7.50748
rtoes 4.32762
lfemur 16.5404 2.22596 -17.1384
ltibia 9.86471
lfoot -11.3768 -9.79302
ltoes -11.0427
422
root 17.0462 17.4136 -0.476722 364.886 -75.2867 -10.171
lowerback 25.5547 0.530778 1.44001
upperback 15.21 -0.331574 -0.420304
thorax 2.72791 -0.583291 -1.22351
lowerneck -9.60983 -8.54035 -1.8051
upperneck -4.54148 -11.5896 16.3865
head 1.35882 -5.76651 4.66291
rclavicle -1.74931e-014 1.51076e-014
rhumerus -12.3395 25.3122 -80.8318
rradius 27.2061
rwrist -9.55505
rhand -23.7685 3.00525
rfingers 7.12502
rthumb 2.70092 -26.9574
lclavicle -1.74931e-014 1.51076e-014
lhumerus -4.38067 -17.7729 84.1427
lradius 33.5586
lwrist 28.0577
lhand -15.6225 -8.24431
lfingers 7.12502
lthumb 10.5643 21.4702
rfemur -34.6873 -6.14144 24.3369
rtibia 52.3182
rfoot -20.3546 -7.53416
rtoes 4.31332
lfemur 18.2013 2.32967 -17.0591
ltibia 7.55709
lfoot -10.5567 -9.64363
ltoes -11.3223
423
root 16.925 17.4089 -0.46012 365.003 -75.4156 -10.3589
lowerback 25.1359 0.425979 1.51237
upperback 15.0767 -0.42959 -0.427048
thorax 2.76689 -0.617788 -1.25071
lowerneck -9.4236 -8.51334 -1.74344
upperneck -4.32414 -11.5675 16.1501
head 1.36963 -5.74875 4.58744
rclavicle 1.27222e-014 -2.10712e-014
rhumerus -13.0935 24.7169 -81.1785
rradius 27.1046
rwrist -9.45861
rhand -23.7561 2.84134
rfingers 7.12502
rthumb 2.71287 -27.1212
lclavicle 1.27222e-014 -2.10712e-014
lhumerus -4.31074 -17.9013 84.1481
lradius 34.0164
lwrist 27.9924
lhand -15.515 -8.23791
lfingers 7.12502
lthumb 10.668 21.4713
rfemur -34.9254 -6.19923 24.2877
rtibia 51.0562
rfoot -20.4782 -7.6418
rtoes 4.18237
lfemur 20.3138 2.40218 -16.9442
ltibia 4.34475
lfoot -9.26291 -9.45989
ltoes -11.7055
